<svg version="1.0" xmlns="http://www.w3.org/2000/svg" width="133.333" height="133.333" viewBox="0 0 100 100"><path d="M8.2 17.1c-1.1.4-2.4 1.8-2.8 3.1-1.3 4-.8 53.8.6 55.1 1.6 1.6 3.8-1.5 3.4-4.9-.2-2.3 0-2.5 3.4-2.2 3.5.3 3.6.4 3.5 4.3-.1 6.2-.2 6.5-1.7 6.5-2.1 0-2.8 2.9-.8 3.8.9.5 18.9.9 40 .8 36.8-.1 38.4-.2 39.8-2 1.7-2.4 1.5.6 1.8-32.1.2-27.4-.4-32.3-3.7-32.6-5-.6-82-.3-83.5.2zm8.3 9.4c-.1 5-.1 5-3.6 5.3l-3.6.3.2-5.3c.1-2.9.3-5.4.4-5.6 0-.2 1.6-.2 3.3 0 3.2.3 3.3.4 3.3 5.3zm74 0v5H87c-3.5 0-3.5 0-3.5-4.5 0-5.9.1-6.2 3.8-5.8 3.1.3 3.2.4 3.2 5.3zM16.4 42.7c-.1 2.1-.3 4.1-.3 4.5-.1.4-1.6.7-3.3.5-3.2-.2-3.3-.3-3.4-5.2 0-4.6.2-5.1 2.5-5.6 3.4-.7 4.8 1 4.5 5.8zm74.2-.7c0 5.2-.5 5.8-4.6 5.6-2.2-.1-2.4-.5-2.5-5 0-4 .3-5 1.9-5.6 4-1.4 5.3-.2 5.2 5zm-34.1 5.7c1.6 1 1.8 1.5.9 3-1.6 2.5-11.5 8.3-13.9 8-1.8-.2-2-1.1-2.3-8-.4-10.7.3-11.4 7.6-7.4 3.2 1.8 6.6 3.7 7.7 4.4zm-40.4 5.2c.1.3.2 2.5.3 4.9.2 4.7-1.1 6.2-4.8 5.5-1.9-.4-2.2-1.1-2.3-5.1-.1-5.1.6-6 4.3-6 1.3 0 2.5.3 2.5.7zm74.6 4.7c0 5-.2 5.2-2.9 5.6-3.5.6-4.2-.4-4.3-5.7-.1-5.2-.1-5.3 3.8-5.2l3.4.1v5.2zm-.2 15.1c-.2 2.7-.3 5.2-.4 5.6 0 .5-1.5.7-3.3.5-3-.3-3.2-.5-3.3-4.3-.2-5.7.3-6.5 4-6.5 3.2 0 3.2 0 3 4.7z"/></svg>