<?xml version="1.0" standalone="no"?>
<!DOCTYPE svg PUBLIC "-//W3C//DTD SVG 20010904//EN"
 "http://www.w3.org/TR/2001/REC-SVG-20010904/DTD/svg10.dtd">
<svg version="1.0" xmlns="http://www.w3.org/2000/svg"
 width="100.000000pt" height="100.000000pt" viewBox="0 0 100.000000 100.000000"
 preserveAspectRatio="xMidYMid meet">
<metadata>
Created by potrace 1.14, written by Peter Selinger 2001-2017
</metadata>
<g transform="translate(0.000000,100.000000) scale(0.100000,-0.100000)"
fill="#000000" stroke="none">
<path d="M82 829 c-11 -4 -24 -18 -28 -31 -13 -40 -8 -538 6 -551 16 -16 38
15 34 49 -2 23 0 25 34 22 35 -3 36 -4 35 -43 -1 -62 -2 -65 -17 -65 -21 0
-28 -29 -8 -38 9 -5 189 -9 400 -8 368 1 384 2 398 20 17 24 15 -6 18 321 2
274 -4 323 -37 326 -50 6 -820 3 -835 -2z m83 -94 c-1 -50 -1 -50 -36 -53
l-36 -3 2 53 c1 29 3 54 4 56 0 2 16 2 33 0 32 -3 33 -4 33 -53z m740 0 l0
-50 -35 0 c-35 0 -35 0 -35 45 0 59 1 62 38 58 31 -3 32 -4 32 -53z m-741
-162 c-1 -21 -3 -41 -3 -45 -1 -4 -16 -7 -33 -5 -32 2 -33 3 -34 52 0 46 2 51
25 56 34 7 48 -10 45 -58z m742 7 c0 -52 -5 -58 -46 -56 -22 1 -24 5 -25 50 0
40 3 50 19 56 40 14 53 2 52 -50z m-341 -57 c16 -10 18 -15 9 -30 -16 -25
-115 -83 -139 -80 -18 2 -20 11 -23 80 -4 107 3 114 76 74 32 -18 66 -37 77
-44z m-404 -52 c1 -3 2 -25 3 -49 2 -47 -11 -62 -48 -55 -19 4 -22 11 -23 51
-1 51 6 60 43 60 13 0 25 -3 25 -7z m746 -47 c0 -50 -2 -52 -29 -56 -35 -6
-42 4 -43 57 -1 52 -1 53 38 52 l34 -1 0 -52z m-2 -151 c-2 -27 -3 -52 -4 -56
0 -5 -15 -7 -33 -5 -30 3 -32 5 -33 43 -2 57 3 65 40 65 32 0 32 0 30 -47z"/>
</g>
</svg>
